<svg width="209" height="79" viewBox="0 0 209 79" fill="none" xmlns="http://www.w3.org/2000/svg">
<mask id="path-1-outside-1" maskUnits="userSpaceOnUse" x="0.639999" y="0.879997" width="209" height="78" fill="black">
<rect fill="white" x="0.639999" y="0.879997" width="209" height="78"/>
<path d="M48.36 64.68C48.36 65.0533 48.2267 65.4533 47.96 65.88C47.6933 66.3067 47.32 66.52 46.84 66.52C46.5733 66.52 46.28 66.44 45.96 66.28C44.04 65.3733 41.8 64.6267 39.24 64.04C36.68 63.5067 34.04 63.0267 31.32 62.6C28.6533 62.1733 26.04 61.6933 23.48 61.16C20.92 60.68 18.68 60.04 16.76 59.24C17.08 59.9333 17.4 60.4933 17.72 60.92C18.04 61.3467 18.3067 61.72 18.52 62.04C18.7867 62.36 19 62.6533 19.16 62.92C19.32 63.24 19.4 63.64 19.4 64.12C19.4 64.5467 19.24 64.8667 18.92 65.08C18.6 65.2933 18.28 65.4 17.96 65.4C17.32 65.4 16.6267 65 15.88 64.2C15.1867 63.4 14.4667 62.3867 13.72 61.16C12.9733 59.9333 12.2267 58.5733 11.48 57.08C10.7867 55.5333 10.1467 54.04 9.56 52.6C8.97333 51.16 8.46667 49.8533 8.04 48.68C7.61333 47.4533 7.32 46.52 7.16 45.88L3.64 31.8C3.64 31.64 3.66667 31.4267 3.72 31.16C3.82667 30.8933 4.04 30.6267 4.36 30.36C4.14667 29.9333 4.04 29.48 4.04 29C4.04 27.5067 4.89333 26.1467 6.6 24.92C8.30667 23.64 10.36 22.5733 12.76 21.72C15.2133 20.8133 17.7733 20.12 20.44 19.64C23.1067 19.16 25.3733 18.92 27.24 18.92C27.7733 18.92 28.5733 18.9733 29.64 19.08C30.7067 19.1333 31.7467 19.32 32.76 19.64C33.8267 19.96 34.7333 20.4667 35.48 21.16C36.28 21.8 36.68 22.7067 36.68 23.88C36.68 25 36.0933 26.28 34.92 27.72C33.8 29.16 32.3867 30.68 30.68 32.28C28.9733 33.88 27.1333 35.5333 25.16 37.24C23.1867 38.8933 21.3467 40.5733 19.64 42.28C17.9333 43.9333 16.4933 45.56 15.32 47.16C14.2 48.7067 13.64 50.1467 13.64 51.48C13.64 52.4933 14.0667 53.4 14.92 54.2C15.8267 54.9467 16.9467 55.6133 18.28 56.2C19.6133 56.7867 21.0533 57.2933 22.6 57.72C24.2 58.1467 25.6933 58.4933 27.08 58.76C28.52 59.0267 29.7467 59.24 30.76 59.4C31.8267 59.5067 32.4667 59.56 32.68 59.56C33.3733 59.56 34.5733 59.64 36.28 59.8C37.9867 59.96 39.72 60.2533 41.48 60.68C43.2933 61.0533 44.8933 61.56 46.28 62.2C47.6667 62.84 48.36 63.6667 48.36 64.68ZM32.92 23.96C32.92 23.5867 32.7333 23.2667 32.36 23C31.9867 22.68 31.48 22.44 30.84 22.28C30.2533 22.0667 29.5867 21.9333 28.84 21.88C28.1467 21.7733 27.4533 21.72 26.76 21.72C25.6933 21.72 24.4133 21.88 22.92 22.2C21.4267 22.52 19.9067 22.92 18.36 23.4C16.8667 23.88 15.48 24.36 14.2 24.84C12.92 25.32 11.9867 25.72 11.4 26.04C10.28 26.68 9.18667 27.4 8.12 28.2C7.05333 28.9467 6.52 29.6933 6.52 30.44C6.52 30.5467 6.6 30.6533 6.76 30.76C6.92 30.8667 7 31.0533 7 31.32C7 31.64 7.16 32.4667 7.48 33.8C7.8 35.08 8.17333 36.5467 8.6 38.2C9.02667 39.8 9.48 41.4 9.96 43C10.4933 44.6 10.9733 45.88 11.4 46.84C13.5867 43.7467 15.9333 41.0533 18.44 38.76C21 36.4133 23.3467 34.36 25.48 32.6C27.6133 30.7867 29.3733 29.2133 30.76 27.88C32.2 26.4933 32.92 25.1867 32.92 23.96Z"/>
<path d="M67.3775 52.6C67.4308 52.7067 67.4575 52.8667 67.4575 53.08C67.4575 53.4 67.2175 53.88 66.7375 54.52C66.5775 54.7333 66.2308 55.08 65.6975 55.56C65.1642 56.04 64.4442 56.52 63.5375 57C62.6308 57.48 61.5108 57.9067 60.1775 58.28C58.8975 58.6533 57.3775 58.84 55.6175 58.84C54.3908 58.84 53.1908 58.5733 52.0175 58.04C50.8442 57.4533 49.8042 56.6267 48.8975 55.56C47.9908 54.44 47.2442 53.08 46.6575 51.48C46.0708 49.8267 45.7775 47.9067 45.7775 45.72C45.7775 43.64 46.0442 41.6933 46.5775 39.88C47.1108 38.0667 47.7775 36.4667 48.5775 35.08C49.4308 33.6933 50.3642 32.6 51.3775 31.8C52.3908 31 53.3775 30.6 54.3375 30.6C55.1908 30.6 56.0442 30.7867 56.8975 31.16C57.8042 31.48 58.6042 31.9067 59.2975 32.44C60.0442 32.9733 60.6308 33.5867 61.0575 34.28C61.4842 34.92 61.6975 35.5867 61.6975 36.28C61.6975 37.08 61.3242 37.9067 60.5775 38.76C59.8842 39.6133 59.0308 40.4133 58.0175 41.16C57.0042 41.8533 55.9908 42.44 54.9775 42.92C53.9642 43.3467 53.1642 43.56 52.5775 43.56C52.2575 43.56 51.9642 43.4267 51.6975 43.16C51.4842 42.84 51.3775 42.4667 51.3775 42.04C51.3775 41.2933 51.6975 40.7067 52.3375 40.28C53.0308 39.8533 53.7775 39.48 54.5775 39.16C55.3775 38.7867 56.0975 38.36 56.7375 37.88C57.4308 37.4 57.7775 36.7333 57.7775 35.88C57.7775 35.7733 57.6442 35.5067 57.3775 35.08C57.1108 34.6533 56.3908 34.44 55.2175 34.44C54.6842 34.44 54.0708 34.76 53.3775 35.4C52.6842 35.9867 52.0175 36.8133 51.3775 37.88C50.7375 38.8933 50.2042 40.12 49.7775 41.56C49.3508 42.9467 49.1375 44.4667 49.1375 46.12C49.1375 47.5067 49.3775 48.76 49.8575 49.88C50.3908 51 51.0575 51.96 51.8575 52.76C52.6575 53.5067 53.5908 54.0933 54.6575 54.52C55.7242 54.9467 56.8175 55.16 57.9375 55.16C58.7375 55.16 59.5908 55 60.4975 54.68C61.4575 54.3067 62.3375 53.9333 63.1375 53.56C63.9908 53.1333 64.7108 52.76 65.2975 52.44C65.9375 52.0667 66.3375 51.88 66.4975 51.88C66.6575 51.88 66.8175 51.96 66.9775 52.12C67.1908 52.28 67.3242 52.44 67.3775 52.6Z"/>
<path d="M95.2681 52.6C95.3215 52.7067 95.3481 52.8667 95.3481 53.08C95.3481 53.4 95.1081 53.88 94.6281 54.52C94.4681 54.7333 94.1215 55.08 93.5881 55.56C93.0548 56.04 92.3348 56.52 91.4281 57C90.5215 57.48 89.4015 57.9067 88.0681 58.28C86.7881 58.6533 85.2681 58.84 83.5081 58.84C82.2815 58.84 81.0815 58.5733 79.9081 58.04C78.7348 57.4533 77.6948 56.6267 76.7881 55.56C75.8815 54.44 75.1348 53.08 74.5481 51.48C73.9615 49.8267 73.6681 47.9067 73.6681 45.72C73.6681 43.64 73.9348 41.6933 74.4681 39.88C75.0015 38.0667 75.6681 36.4667 76.4681 35.08C77.3215 33.6933 78.2548 32.6 79.2681 31.8C80.2815 31 81.2681 30.6 82.2281 30.6C83.0815 30.6 83.9348 30.7867 84.7881 31.16C85.6948 31.48 86.4948 31.9067 87.1881 32.44C87.9348 32.9733 88.5215 33.5867 88.9481 34.28C89.3748 34.92 89.5881 35.5867 89.5881 36.28C89.5881 37.08 89.2148 37.9067 88.4681 38.76C87.7748 39.6133 86.9215 40.4133 85.9081 41.16C84.8948 41.8533 83.8815 42.44 82.8681 42.92C81.8548 43.3467 81.0548 43.56 80.4681 43.56C80.1481 43.56 79.8548 43.4267 79.5881 43.16C79.3748 42.84 79.2681 42.4667 79.2681 42.04C79.2681 41.2933 79.5881 40.7067 80.2281 40.28C80.9215 39.8533 81.6681 39.48 82.4681 39.16C83.2681 38.7867 83.9881 38.36 84.6281 37.88C85.3215 37.4 85.6681 36.7333 85.6681 35.88C85.6681 35.7733 85.5348 35.5067 85.2681 35.08C85.0015 34.6533 84.2815 34.44 83.1081 34.44C82.5748 34.44 81.9615 34.76 81.2681 35.4C80.5748 35.9867 79.9081 36.8133 79.2681 37.88C78.6281 38.8933 78.0948 40.12 77.6681 41.56C77.2415 42.9467 77.0281 44.4667 77.0281 46.12C77.0281 47.5067 77.2681 48.76 77.7481 49.88C78.2815 51 78.9481 51.96 79.7481 52.76C80.5481 53.5067 81.4815 54.0933 82.5481 54.52C83.6148 54.9467 84.7081 55.16 85.8281 55.16C86.6281 55.16 87.4815 55 88.3881 54.68C89.3481 54.3067 90.2281 53.9333 91.0281 53.56C91.8815 53.1333 92.6015 52.76 93.1881 52.44C93.8281 52.0667 94.2281 51.88 94.3881 51.88C94.5481 51.88 94.7081 51.96 94.8681 52.12C95.0815 52.28 95.2148 52.44 95.2681 52.6Z"/>
<path d="M123.559 48.12C123.559 48.3867 123.425 48.6533 123.159 48.92C122.945 49.1333 122.812 49.3733 122.759 49.64C122.759 50.2267 122.865 50.7867 123.079 51.32C123.345 51.8533 123.479 52.4933 123.479 53.24C123.479 53.9333 123.265 54.28 122.839 54.28C122.305 54.28 121.905 54.36 121.639 54.52C121.425 54.6267 121.025 54.7333 120.439 54.84C120.119 54.84 119.772 54.5467 119.399 53.96C119.185 53.6933 118.999 53.3733 118.839 53C118.839 52.9467 118.679 53.0533 118.359 53.32C118.092 53.5867 117.612 53.9067 116.919 54.28C116.279 54.6 115.372 54.92 114.199 55.24C113.079 55.5067 111.639 55.64 109.879 55.64C108.385 55.64 107.079 55.32 105.959 54.68C104.839 53.9867 103.905 53.1067 103.159 52.04C102.465 50.9733 101.932 49.7733 101.559 48.44C101.239 47.0533 101.079 45.6667 101.079 44.28C101.079 43 101.212 41.8 101.479 40.68C101.799 39.5067 102.225 38.4933 102.759 37.64C103.292 36.7333 103.959 36.0133 104.759 35.48C105.559 34.9467 106.492 34.68 107.559 34.68C108.572 34.68 109.585 35 110.599 35.64C111.612 36.28 112.519 36.9733 113.319 37.72C114.119 38.4667 114.759 39.16 115.239 39.8C115.772 40.3867 116.039 40.68 116.039 40.68C115.292 36.52 114.625 32.76 114.039 29.4C113.772 27.96 113.505 26.5467 113.239 25.16C113.025 23.72 112.812 22.44 112.599 21.32C112.385 20.2 112.199 19.2667 112.039 18.52C111.932 17.72 111.879 17.24 111.879 17.08C111.825 16.76 111.772 16.2 111.719 15.4C111.665 14.5467 111.612 13.6667 111.559 12.76C111.505 11.8533 111.452 11.0267 111.399 10.28C111.345 9.53333 111.292 9.05333 111.239 8.84C111.079 8.30666 110.865 7.64 110.599 6.84C110.385 6.04 110.279 5.58667 110.279 5.48C110.279 5.21333 110.412 4.89333 110.679 4.52C110.945 4.09333 111.292 3.88 111.719 3.88C112.039 3.88 112.332 3.90666 112.599 3.96C112.865 4.01333 113.105 4.17333 113.319 4.44C113.532 4.70667 113.719 5.13333 113.879 5.72C114.092 6.25333 114.279 7.02666 114.439 8.04C114.492 8.57333 114.652 9.58667 114.919 11.08C115.185 12.5733 115.452 14.2 115.719 15.96C115.985 17.72 116.252 19.4 116.519 21C116.785 22.6 116.972 23.7733 117.079 24.52C117.345 26.5467 117.692 28.76 118.119 31.16C118.599 33.5067 119.079 35.7733 119.559 37.96C120.039 40.1467 120.519 42.0933 120.999 43.8C121.479 45.4533 121.905 46.5733 122.279 47.16C122.385 47.3733 122.599 47.5333 122.919 47.64C123.239 47.6933 123.452 47.8533 123.559 48.12ZM117.639 49.72C117.585 49.56 117.239 48.8933 116.599 47.72C116.012 46.4933 115.239 45.1867 114.279 43.8C113.372 42.36 112.332 41.08 111.159 39.96C110.039 38.84 108.945 38.28 107.879 38.28C106.972 38.28 106.225 38.9733 105.639 40.36C105.105 41.7467 104.839 43.3467 104.839 45.16C104.839 47.1867 105.425 48.8133 106.599 50.04C107.825 51.2667 109.185 51.88 110.679 51.88C111.959 51.88 113.292 51.6667 114.679 51.24C116.065 50.8133 117.052 50.3067 117.639 49.72Z"/>
<path d="M152.387 48.12C152.387 48.3867 152.254 48.6533 151.987 48.92C151.774 49.1333 151.64 49.3733 151.587 49.64C151.587 50.2267 151.694 50.7867 151.907 51.32C152.174 51.8533 152.307 52.4933 152.307 53.24C152.307 53.9333 152.094 54.28 151.667 54.28C151.134 54.28 150.734 54.36 150.467 54.52C150.254 54.6267 149.854 54.7333 149.267 54.84C148.947 54.84 148.6 54.5467 148.227 53.96C148.014 53.6933 147.827 53.3733 147.667 53C147.667 52.9467 147.507 53.0533 147.187 53.32C146.92 53.5867 146.44 53.9067 145.747 54.28C145.107 54.6 144.2 54.92 143.027 55.24C141.907 55.5067 140.467 55.64 138.707 55.64C137.214 55.64 135.907 55.32 134.787 54.68C133.667 53.9867 132.734 53.1067 131.987 52.04C131.294 50.9733 130.76 49.7733 130.387 48.44C130.067 47.0533 129.907 45.6667 129.907 44.28C129.907 43 130.04 41.8 130.307 40.68C130.627 39.5067 131.054 38.4933 131.587 37.64C132.12 36.7333 132.787 36.0133 133.587 35.48C134.387 34.9467 135.32 34.68 136.387 34.68C137.4 34.68 138.414 35 139.427 35.64C140.44 36.28 141.347 36.9733 142.147 37.72C142.947 38.4667 143.587 39.16 144.067 39.8C144.6 40.3867 144.867 40.68 144.867 40.68C144.12 36.52 143.454 32.76 142.867 29.4C142.6 27.96 142.334 26.5467 142.067 25.16C141.854 23.72 141.64 22.44 141.427 21.32C141.214 20.2 141.027 19.2667 140.867 18.52C140.76 17.72 140.707 17.24 140.707 17.08C140.654 16.76 140.6 16.2 140.547 15.4C140.494 14.5467 140.44 13.6667 140.387 12.76C140.334 11.8533 140.28 11.0267 140.227 10.28C140.174 9.53333 140.12 9.05333 140.067 8.84C139.907 8.30666 139.694 7.64 139.427 6.84C139.214 6.04 139.107 5.58667 139.107 5.48C139.107 5.21333 139.24 4.89333 139.507 4.52C139.774 4.09333 140.12 3.88 140.547 3.88C140.867 3.88 141.16 3.90666 141.427 3.96C141.694 4.01333 141.934 4.17333 142.147 4.44C142.36 4.70667 142.547 5.13333 142.707 5.72C142.92 6.25333 143.107 7.02666 143.267 8.04C143.32 8.57333 143.48 9.58667 143.747 11.08C144.014 12.5733 144.28 14.2 144.547 15.96C144.814 17.72 145.08 19.4 145.347 21C145.614 22.6 145.8 23.7733 145.907 24.52C146.174 26.5467 146.52 28.76 146.947 31.16C147.427 33.5067 147.907 35.7733 148.387 37.96C148.867 40.1467 149.347 42.0933 149.827 43.8C150.307 45.4533 150.734 46.5733 151.107 47.16C151.214 47.3733 151.427 47.5333 151.747 47.64C152.067 47.6933 152.28 47.8533 152.387 48.12ZM146.467 49.72C146.414 49.56 146.067 48.8933 145.427 47.72C144.84 46.4933 144.067 45.1867 143.107 43.8C142.2 42.36 141.16 41.08 139.987 39.96C138.867 38.84 137.774 38.28 136.707 38.28C135.8 38.28 135.054 38.9733 134.467 40.36C133.934 41.7467 133.667 43.3467 133.667 45.16C133.667 47.1867 134.254 48.8133 135.427 50.04C136.654 51.2667 138.014 51.88 139.507 51.88C140.787 51.88 142.12 51.6667 143.507 51.24C144.894 50.8133 145.88 50.3067 146.467 49.72Z"/>
<path d="M184.175 46.2C184.442 46.4667 184.575 46.6267 184.575 46.68C184.575 46.7867 184.415 47.1067 184.095 47.64C183.828 48.1733 183.455 48.7333 182.975 49.32C182.495 49.9067 181.962 50.44 181.375 50.92C180.842 51.3467 180.308 51.56 179.775 51.56C178.655 51.56 177.748 51.3467 177.055 50.92C176.362 50.44 175.775 49.8533 175.295 49.16C174.868 48.4667 174.522 47.72 174.255 46.92C174.042 46.0667 173.855 45.2667 173.695 44.52C173.588 44.1467 173.482 43.96 173.375 43.96C173.215 43.96 172.895 44.5467 172.415 45.72C171.935 46.84 171.402 48.0933 170.815 49.48C170.282 50.8133 169.748 52.0667 169.215 53.24C168.735 54.36 168.415 54.92 168.255 54.92C167.295 54.92 166.468 54.52 165.775 53.72C165.135 52.8667 164.602 51.9067 164.175 50.84C163.802 49.72 163.508 48.6 163.295 47.48C163.082 46.3067 162.948 45.4 162.895 44.76C162.735 43.32 162.388 40.92 161.855 37.56C161.322 34.2 160.868 30.12 160.495 25.32C160.388 24.3067 160.255 23.4 160.095 22.6C159.988 21.7467 159.855 20.8133 159.695 19.8C159.535 18.7867 159.402 17.64 159.295 16.36C159.188 15.08 159.135 13.5067 159.135 11.64C159.135 11.5333 159.162 11.1867 159.215 10.6C159.268 10.0133 159.348 9.37333 159.455 8.68C159.562 7.98666 159.722 7.37333 159.935 6.84C160.202 6.30666 160.495 6.04 160.815 6.04C161.188 6.04 161.535 6.28 161.855 6.76C162.175 7.18667 162.442 7.69333 162.655 8.28C162.922 8.86667 163.108 9.42667 163.215 9.96C163.322 10.4933 163.375 10.8667 163.375 11.08C163.375 11.88 163.322 12.6267 163.215 13.32C163.108 14.0133 163.055 14.6533 163.055 15.24C163.055 16.04 163.108 17.0533 163.215 18.28C163.375 19.5067 163.562 20.76 163.775 22.04C163.988 23.32 164.175 24.5733 164.335 25.8C164.495 26.9733 164.628 27.9333 164.735 28.68C164.735 28.7333 164.788 29.1067 164.895 29.8C165.002 30.4933 165.108 31.3733 165.215 32.44C165.375 33.4533 165.508 34.5733 165.615 35.8C165.775 36.9733 165.935 38.1467 166.095 39.32C166.255 40.44 166.388 41.4533 166.495 42.36C166.655 43.2133 166.762 43.8267 166.815 44.2C166.815 44.36 166.842 44.6 166.895 44.92C167.002 45.1867 167.082 45.5067 167.135 45.88C167.242 46.2533 167.348 46.6 167.455 46.92C167.562 47.24 167.695 47.48 167.855 47.64C168.175 47 168.575 46.0133 169.055 44.68C169.588 43.3467 170.122 41.9867 170.655 40.6C171.242 39.2133 171.775 38.0133 172.255 37C172.788 35.9333 173.242 35.4 173.615 35.4C174.042 35.4 174.388 35.48 174.655 35.64C174.922 35.8 175.268 35.9333 175.695 36.04C176.228 36.2533 176.495 36.5467 176.495 36.92C176.495 37.24 176.548 37.64 176.655 38.12C176.762 38.76 176.922 39.6133 177.135 40.68C177.402 41.6933 177.695 42.7067 178.015 43.72C178.335 44.68 178.708 45.5067 179.135 46.2C179.562 46.8933 179.988 47.24 180.415 47.24C180.628 47.24 180.922 46.9733 181.295 46.44C181.668 45.8533 182.175 45.5333 182.815 45.48C182.922 45.48 183.108 45.56 183.375 45.72C183.642 45.8267 183.908 45.9867 184.175 46.2Z"/>
<path d="M205.998 23.56C205.305 27.24 204.665 30.7867 204.078 34.2C203.811 35.64 203.545 37.16 203.278 38.76C203.011 40.3067 202.745 41.8533 202.478 43.4C202.265 44.8933 202.051 46.3333 201.838 47.72C201.678 49.0533 201.545 50.28 201.438 51.4C201.225 53.1067 201.065 55.0533 200.958 57.24C200.851 59.4267 200.745 61.5067 200.638 63.48C200.531 65.7733 200.478 68.0933 200.478 70.44C200.478 70.92 200.425 71.4533 200.318 72.04C200.211 72.6267 200.158 73.2133 200.158 73.8C200.158 74.3333 200.025 74.7867 199.758 75.16C199.545 75.5333 199.198 75.72 198.718 75.72C198.291 75.72 197.945 75.3733 197.678 74.68C197.465 74.04 197.278 73.2667 197.118 72.36C196.958 71.5067 196.851 70.6267 196.798 69.72C196.745 68.8667 196.718 68.2533 196.718 67.88C196.718 67.4533 196.718 66.92 196.718 66.28C196.718 65.6933 196.745 64.7867 196.798 63.56C196.905 62.3867 197.038 60.84 197.198 58.92C197.358 56.9467 197.598 54.3867 197.918 51.24C197.918 51.1867 197.545 50.92 196.798 50.44C196.105 49.96 195.225 49.3733 194.158 48.68C193.145 47.9333 192.078 47.1333 190.958 46.28C189.891 45.4267 188.985 44.6 188.238 43.8C188.131 43.6933 187.971 43.4533 187.758 43.08C187.545 42.7067 187.438 42.2533 187.438 41.72C187.438 41.4533 187.571 41.1867 187.838 40.92C188.105 40.6 188.398 40.44 188.718 40.44C188.931 40.44 189.145 40.5467 189.358 40.76C190.585 41.8267 191.998 43.0267 193.598 44.36C195.198 45.64 196.771 46.8133 198.318 47.88C198.425 46.92 198.638 45.4533 198.958 43.48C199.331 41.5067 199.705 39.4 200.078 37.16C200.451 34.8667 200.798 32.6533 201.118 30.52C201.491 28.3867 201.758 26.68 201.918 25.4C201.918 25.1867 201.971 24.84 202.078 24.36C202.185 23.88 202.345 23.4 202.558 22.92C202.771 22.44 203.011 22.04 203.278 21.72C203.545 21.3467 203.838 21.16 204.158 21.16C204.318 21.16 204.665 21.32 205.198 21.64C205.731 21.9067 205.998 22.5467 205.998 23.56Z"/>
</mask>
<path d="M48.36 64.68C48.36 65.0533 48.2267 65.4533 47.96 65.88C47.6933 66.3067 47.32 66.52 46.84 66.52C46.5733 66.52 46.28 66.44 45.96 66.28C44.04 65.3733 41.8 64.6267 39.24 64.04C36.68 63.5067 34.04 63.0267 31.32 62.6C28.6533 62.1733 26.04 61.6933 23.48 61.16C20.92 60.68 18.68 60.04 16.76 59.24C17.08 59.9333 17.4 60.4933 17.72 60.92C18.04 61.3467 18.3067 61.72 18.52 62.04C18.7867 62.36 19 62.6533 19.16 62.92C19.32 63.24 19.4 63.64 19.4 64.12C19.4 64.5467 19.24 64.8667 18.92 65.08C18.6 65.2933 18.28 65.4 17.96 65.4C17.32 65.4 16.6267 65 15.88 64.2C15.1867 63.4 14.4667 62.3867 13.72 61.16C12.9733 59.9333 12.2267 58.5733 11.48 57.08C10.7867 55.5333 10.1467 54.04 9.56 52.6C8.97333 51.16 8.46667 49.8533 8.04 48.68C7.61333 47.4533 7.32 46.52 7.16 45.88L3.64 31.8C3.64 31.64 3.66667 31.4267 3.72 31.16C3.82667 30.8933 4.04 30.6267 4.36 30.36C4.14667 29.9333 4.04 29.48 4.04 29C4.04 27.5067 4.89333 26.1467 6.6 24.92C8.30667 23.64 10.36 22.5733 12.76 21.72C15.2133 20.8133 17.7733 20.12 20.44 19.64C23.1067 19.16 25.3733 18.92 27.24 18.92C27.7733 18.92 28.5733 18.9733 29.64 19.08C30.7067 19.1333 31.7467 19.32 32.76 19.64C33.8267 19.96 34.7333 20.4667 35.48 21.16C36.28 21.8 36.68 22.7067 36.68 23.88C36.68 25 36.0933 26.28 34.92 27.72C33.8 29.16 32.3867 30.68 30.68 32.28C28.9733 33.88 27.1333 35.5333 25.16 37.24C23.1867 38.8933 21.3467 40.5733 19.64 42.28C17.9333 43.9333 16.4933 45.56 15.32 47.16C14.2 48.7067 13.64 50.1467 13.64 51.48C13.64 52.4933 14.0667 53.4 14.92 54.2C15.8267 54.9467 16.9467 55.6133 18.28 56.2C19.6133 56.7867 21.0533 57.2933 22.6 57.72C24.2 58.1467 25.6933 58.4933 27.08 58.76C28.52 59.0267 29.7467 59.24 30.76 59.4C31.8267 59.5067 32.4667 59.56 32.68 59.56C33.3733 59.56 34.5733 59.64 36.28 59.8C37.9867 59.96 39.72 60.2533 41.48 60.68C43.2933 61.0533 44.8933 61.56 46.28 62.2C47.6667 62.84 48.36 63.6667 48.36 64.68ZM32.92 23.96C32.92 23.5867 32.7333 23.2667 32.36 23C31.9867 22.68 31.48 22.44 30.84 22.28C30.2533 22.0667 29.5867 21.9333 28.84 21.88C28.1467 21.7733 27.4533 21.72 26.76 21.72C25.6933 21.72 24.4133 21.88 22.92 22.2C21.4267 22.52 19.9067 22.92 18.36 23.4C16.8667 23.88 15.48 24.36 14.2 24.84C12.92 25.32 11.9867 25.72 11.4 26.04C10.28 26.68 9.18667 27.4 8.12 28.2C7.05333 28.9467 6.52 29.6933 6.52 30.44C6.52 30.5467 6.6 30.6533 6.76 30.76C6.92 30.8667 7 31.0533 7 31.32C7 31.64 7.16 32.4667 7.48 33.8C7.8 35.08 8.17333 36.5467 8.6 38.2C9.02667 39.8 9.48 41.4 9.96 43C10.4933 44.6 10.9733 45.88 11.4 46.84C13.5867 43.7467 15.9333 41.0533 18.44 38.76C21 36.4133 23.3467 34.36 25.48 32.6C27.6133 30.7867 29.3733 29.2133 30.76 27.88C32.2 26.4933 32.92 25.1867 32.92 23.96Z" stroke="white" stroke-width="6" mask="url(#path-1-outside-1)"/>
<path d="M67.3775 52.6C67.4308 52.7067 67.4575 52.8667 67.4575 53.08C67.4575 53.4 67.2175 53.88 66.7375 54.52C66.5775 54.7333 66.2308 55.08 65.6975 55.56C65.1642 56.04 64.4442 56.52 63.5375 57C62.6308 57.48 61.5108 57.9067 60.1775 58.28C58.8975 58.6533 57.3775 58.84 55.6175 58.84C54.3908 58.84 53.1908 58.5733 52.0175 58.04C50.8442 57.4533 49.8042 56.6267 48.8975 55.56C47.9908 54.44 47.2442 53.08 46.6575 51.48C46.0708 49.8267 45.7775 47.9067 45.7775 45.72C45.7775 43.64 46.0442 41.6933 46.5775 39.88C47.1108 38.0667 47.7775 36.4667 48.5775 35.08C49.4308 33.6933 50.3642 32.6 51.3775 31.8C52.3908 31 53.3775 30.6 54.3375 30.6C55.1908 30.6 56.0442 30.7867 56.8975 31.16C57.8042 31.48 58.6042 31.9067 59.2975 32.44C60.0442 32.9733 60.6308 33.5867 61.0575 34.28C61.4842 34.92 61.6975 35.5867 61.6975 36.28C61.6975 37.08 61.3242 37.9067 60.5775 38.76C59.8842 39.6133 59.0308 40.4133 58.0175 41.16C57.0042 41.8533 55.9908 42.44 54.9775 42.92C53.9642 43.3467 53.1642 43.56 52.5775 43.56C52.2575 43.56 51.9642 43.4267 51.6975 43.16C51.4842 42.84 51.3775 42.4667 51.3775 42.04C51.3775 41.2933 51.6975 40.7067 52.3375 40.28C53.0308 39.8533 53.7775 39.48 54.5775 39.16C55.3775 38.7867 56.0975 38.36 56.7375 37.88C57.4308 37.4 57.7775 36.7333 57.7775 35.88C57.7775 35.7733 57.6442 35.5067 57.3775 35.08C57.1108 34.6533 56.3908 34.44 55.2175 34.44C54.6842 34.44 54.0708 34.76 53.3775 35.4C52.6842 35.9867 52.0175 36.8133 51.3775 37.88C50.7375 38.8933 50.2042 40.12 49.7775 41.56C49.3508 42.9467 49.1375 44.4667 49.1375 46.12C49.1375 47.5067 49.3775 48.76 49.8575 49.88C50.3908 51 51.0575 51.96 51.8575 52.76C52.6575 53.5067 53.5908 54.0933 54.6575 54.52C55.7242 54.9467 56.8175 55.16 57.9375 55.16C58.7375 55.16 59.5908 55 60.4975 54.68C61.4575 54.3067 62.3375 53.9333 63.1375 53.56C63.9908 53.1333 64.7108 52.76 65.2975 52.44C65.9375 52.0667 66.3375 51.88 66.4975 51.88C66.6575 51.88 66.8175 51.96 66.9775 52.12C67.1908 52.28 67.3242 52.44 67.3775 52.6Z" stroke="white" stroke-width="6" mask="url(#path-1-outside-1)"/>
<path d="M95.2681 52.6C95.3215 52.7067 95.3481 52.8667 95.3481 53.08C95.3481 53.4 95.1081 53.88 94.6281 54.52C94.4681 54.7333 94.1215 55.08 93.5881 55.56C93.0548 56.04 92.3348 56.52 91.4281 57C90.5215 57.48 89.4015 57.9067 88.0681 58.28C86.7881 58.6533 85.2681 58.84 83.5081 58.84C82.2815 58.84 81.0815 58.5733 79.9081 58.04C78.7348 57.4533 77.6948 56.6267 76.7881 55.56C75.8815 54.44 75.1348 53.08 74.5481 51.48C73.9615 49.8267 73.6681 47.9067 73.6681 45.72C73.6681 43.64 73.9348 41.6933 74.4681 39.88C75.0015 38.0667 75.6681 36.4667 76.4681 35.08C77.3215 33.6933 78.2548 32.6 79.2681 31.8C80.2815 31 81.2681 30.6 82.2281 30.6C83.0815 30.6 83.9348 30.7867 84.7881 31.16C85.6948 31.48 86.4948 31.9067 87.1881 32.44C87.9348 32.9733 88.5215 33.5867 88.9481 34.28C89.3748 34.92 89.5881 35.5867 89.5881 36.28C89.5881 37.08 89.2148 37.9067 88.4681 38.76C87.7748 39.6133 86.9215 40.4133 85.9081 41.16C84.8948 41.8533 83.8815 42.44 82.8681 42.92C81.8548 43.3467 81.0548 43.56 80.4681 43.56C80.1481 43.56 79.8548 43.4267 79.5881 43.16C79.3748 42.84 79.2681 42.4667 79.2681 42.04C79.2681 41.2933 79.5881 40.7067 80.2281 40.28C80.9215 39.8533 81.6681 39.48 82.4681 39.16C83.2681 38.7867 83.9881 38.36 84.6281 37.88C85.3215 37.4 85.6681 36.7333 85.6681 35.88C85.6681 35.7733 85.5348 35.5067 85.2681 35.08C85.0015 34.6533 84.2815 34.44 83.1081 34.44C82.5748 34.44 81.9615 34.76 81.2681 35.4C80.5748 35.9867 79.9081 36.8133 79.2681 37.88C78.6281 38.8933 78.0948 40.12 77.6681 41.56C77.2415 42.9467 77.0281 44.4667 77.0281 46.12C77.0281 47.5067 77.2681 48.76 77.7481 49.88C78.2815 51 78.9481 51.96 79.7481 52.76C80.5481 53.5067 81.4815 54.0933 82.5481 54.52C83.6148 54.9467 84.7081 55.16 85.8281 55.16C86.6281 55.16 87.4815 55 88.3881 54.68C89.3481 54.3067 90.2281 53.9333 91.0281 53.56C91.8815 53.1333 92.6015 52.76 93.1881 52.44C93.8281 52.0667 94.2281 51.88 94.3881 51.88C94.5481 51.88 94.7081 51.96 94.8681 52.12C95.0815 52.28 95.2148 52.44 95.2681 52.6Z" stroke="white" stroke-width="6" mask="url(#path-1-outside-1)"/>
<path d="M123.559 48.12C123.559 48.3867 123.425 48.6533 123.159 48.92C122.945 49.1333 122.812 49.3733 122.759 49.64C122.759 50.2267 122.865 50.7867 123.079 51.32C123.345 51.8533 123.479 52.4933 123.479 53.24C123.479 53.9333 123.265 54.28 122.839 54.28C122.305 54.28 121.905 54.36 121.639 54.52C121.425 54.6267 121.025 54.7333 120.439 54.84C120.119 54.84 119.772 54.5467 119.399 53.96C119.185 53.6933 118.999 53.3733 118.839 53C118.839 52.9467 118.679 53.0533 118.359 53.32C118.092 53.5867 117.612 53.9067 116.919 54.28C116.279 54.6 115.372 54.92 114.199 55.24C113.079 55.5067 111.639 55.64 109.879 55.64C108.385 55.64 107.079 55.32 105.959 54.68C104.839 53.9867 103.905 53.1067 103.159 52.04C102.465 50.9733 101.932 49.7733 101.559 48.44C101.239 47.0533 101.079 45.6667 101.079 44.28C101.079 43 101.212 41.8 101.479 40.68C101.799 39.5067 102.225 38.4933 102.759 37.64C103.292 36.7333 103.959 36.0133 104.759 35.48C105.559 34.9467 106.492 34.68 107.559 34.68C108.572 34.68 109.585 35 110.599 35.64C111.612 36.28 112.519 36.9733 113.319 37.72C114.119 38.4667 114.759 39.16 115.239 39.8C115.772 40.3867 116.039 40.68 116.039 40.68C115.292 36.52 114.625 32.76 114.039 29.4C113.772 27.96 113.505 26.5467 113.239 25.16C113.025 23.72 112.812 22.44 112.599 21.32C112.385 20.2 112.199 19.2667 112.039 18.52C111.932 17.72 111.879 17.24 111.879 17.08C111.825 16.76 111.772 16.2 111.719 15.4C111.665 14.5467 111.612 13.6667 111.559 12.76C111.505 11.8533 111.452 11.0267 111.399 10.28C111.345 9.53333 111.292 9.05333 111.239 8.84C111.079 8.30666 110.865 7.64 110.599 6.84C110.385 6.04 110.279 5.58667 110.279 5.48C110.279 5.21333 110.412 4.89333 110.679 4.52C110.945 4.09333 111.292 3.88 111.719 3.88C112.039 3.88 112.332 3.90666 112.599 3.96C112.865 4.01333 113.105 4.17333 113.319 4.44C113.532 4.70667 113.719 5.13333 113.879 5.72C114.092 6.25333 114.279 7.02666 114.439 8.04C114.492 8.57333 114.652 9.58667 114.919 11.08C115.185 12.5733 115.452 14.2 115.719 15.96C115.985 17.72 116.252 19.4 116.519 21C116.785 22.6 116.972 23.7733 117.079 24.52C117.345 26.5467 117.692 28.76 118.119 31.16C118.599 33.5067 119.079 35.7733 119.559 37.96C120.039 40.1467 120.519 42.0933 120.999 43.8C121.479 45.4533 121.905 46.5733 122.279 47.16C122.385 47.3733 122.599 47.5333 122.919 47.64C123.239 47.6933 123.452 47.8533 123.559 48.12ZM117.639 49.72C117.585 49.56 117.239 48.8933 116.599 47.72C116.012 46.4933 115.239 45.1867 114.279 43.8C113.372 42.36 112.332 41.08 111.159 39.96C110.039 38.84 108.945 38.28 107.879 38.28C106.972 38.28 106.225 38.9733 105.639 40.36C105.105 41.7467 104.839 43.3467 104.839 45.16C104.839 47.1867 105.425 48.8133 106.599 50.04C107.825 51.2667 109.185 51.88 110.679 51.88C111.959 51.88 113.292 51.6667 114.679 51.24C116.065 50.8133 117.052 50.3067 117.639 49.72Z" stroke="white" stroke-width="6" mask="url(#path-1-outside-1)"/>
<path d="M152.387 48.12C152.387 48.3867 152.254 48.6533 151.987 48.92C151.774 49.1333 151.64 49.3733 151.587 49.64C151.587 50.2267 151.694 50.7867 151.907 51.32C152.174 51.8533 152.307 52.4933 152.307 53.24C152.307 53.9333 152.094 54.28 151.667 54.28C151.134 54.28 150.734 54.36 150.467 54.52C150.254 54.6267 149.854 54.7333 149.267 54.84C148.947 54.84 148.6 54.5467 148.227 53.96C148.014 53.6933 147.827 53.3733 147.667 53C147.667 52.9467 147.507 53.0533 147.187 53.32C146.92 53.5867 146.44 53.9067 145.747 54.28C145.107 54.6 144.2 54.92 143.027 55.24C141.907 55.5067 140.467 55.64 138.707 55.64C137.214 55.64 135.907 55.32 134.787 54.68C133.667 53.9867 132.734 53.1067 131.987 52.04C131.294 50.9733 130.76 49.7733 130.387 48.44C130.067 47.0533 129.907 45.6667 129.907 44.28C129.907 43 130.04 41.8 130.307 40.68C130.627 39.5067 131.054 38.4933 131.587 37.64C132.12 36.7333 132.787 36.0133 133.587 35.48C134.387 34.9467 135.32 34.68 136.387 34.68C137.4 34.68 138.414 35 139.427 35.64C140.44 36.28 141.347 36.9733 142.147 37.72C142.947 38.4667 143.587 39.16 144.067 39.8C144.6 40.3867 144.867 40.68 144.867 40.68C144.12 36.52 143.454 32.76 142.867 29.4C142.6 27.96 142.334 26.5467 142.067 25.16C141.854 23.72 141.64 22.44 141.427 21.32C141.214 20.2 141.027 19.2667 140.867 18.52C140.76 17.72 140.707 17.24 140.707 17.08C140.654 16.76 140.6 16.2 140.547 15.4C140.494 14.5467 140.44 13.6667 140.387 12.76C140.334 11.8533 140.28 11.0267 140.227 10.28C140.174 9.53333 140.12 9.05333 140.067 8.84C139.907 8.30666 139.694 7.64 139.427 6.84C139.214 6.04 139.107 5.58667 139.107 5.48C139.107 5.21333 139.24 4.89333 139.507 4.52C139.774 4.09333 140.12 3.88 140.547 3.88C140.867 3.88 141.16 3.90666 141.427 3.96C141.694 4.01333 141.934 4.17333 142.147 4.44C142.36 4.70667 142.547 5.13333 142.707 5.72C142.92 6.25333 143.107 7.02666 143.267 8.04C143.32 8.57333 143.48 9.58667 143.747 11.08C144.014 12.5733 144.28 14.2 144.547 15.96C144.814 17.72 145.08 19.4 145.347 21C145.614 22.6 145.8 23.7733 145.907 24.52C146.174 26.5467 146.52 28.76 146.947 31.16C147.427 33.5067 147.907 35.7733 148.387 37.96C148.867 40.1467 149.347 42.0933 149.827 43.8C150.307 45.4533 150.734 46.5733 151.107 47.16C151.214 47.3733 151.427 47.5333 151.747 47.64C152.067 47.6933 152.28 47.8533 152.387 48.12ZM146.467 49.72C146.414 49.56 146.067 48.8933 145.427 47.72C144.84 46.4933 144.067 45.1867 143.107 43.8C142.2 42.36 141.16 41.08 139.987 39.96C138.867 38.84 137.774 38.28 136.707 38.28C135.8 38.28 135.054 38.9733 134.467 40.36C133.934 41.7467 133.667 43.3467 133.667 45.16C133.667 47.1867 134.254 48.8133 135.427 50.04C136.654 51.2667 138.014 51.88 139.507 51.88C140.787 51.88 142.12 51.6667 143.507 51.24C144.894 50.8133 145.88 50.3067 146.467 49.72Z" stroke="white" stroke-width="6" mask="url(#path-1-outside-1)"/>
<path d="M184.175 46.2C184.442 46.4667 184.575 46.6267 184.575 46.68C184.575 46.7867 184.415 47.1067 184.095 47.64C183.828 48.1733 183.455 48.7333 182.975 49.32C182.495 49.9067 181.962 50.44 181.375 50.92C180.842 51.3467 180.308 51.56 179.775 51.56C178.655 51.56 177.748 51.3467 177.055 50.92C176.362 50.44 175.775 49.8533 175.295 49.16C174.868 48.4667 174.522 47.72 174.255 46.92C174.042 46.0667 173.855 45.2667 173.695 44.52C173.588 44.1467 173.482 43.96 173.375 43.96C173.215 43.96 172.895 44.5467 172.415 45.72C171.935 46.84 171.402 48.0933 170.815 49.48C170.282 50.8133 169.748 52.0667 169.215 53.24C168.735 54.36 168.415 54.92 168.255 54.92C167.295 54.92 166.468 54.52 165.775 53.72C165.135 52.8667 164.602 51.9067 164.175 50.84C163.802 49.72 163.508 48.6 163.295 47.48C163.082 46.3067 162.948 45.4 162.895 44.76C162.735 43.32 162.388 40.92 161.855 37.56C161.322 34.2 160.868 30.12 160.495 25.32C160.388 24.3067 160.255 23.4 160.095 22.6C159.988 21.7467 159.855 20.8133 159.695 19.8C159.535 18.7867 159.402 17.64 159.295 16.36C159.188 15.08 159.135 13.5067 159.135 11.64C159.135 11.5333 159.162 11.1867 159.215 10.6C159.268 10.0133 159.348 9.37333 159.455 8.68C159.562 7.98666 159.722 7.37333 159.935 6.84C160.202 6.30666 160.495 6.04 160.815 6.04C161.188 6.04 161.535 6.28 161.855 6.76C162.175 7.18667 162.442 7.69333 162.655 8.28C162.922 8.86667 163.108 9.42667 163.215 9.96C163.322 10.4933 163.375 10.8667 163.375 11.08C163.375 11.88 163.322 12.6267 163.215 13.32C163.108 14.0133 163.055 14.6533 163.055 15.24C163.055 16.04 163.108 17.0533 163.215 18.28C163.375 19.5067 163.562 20.76 163.775 22.04C163.988 23.32 164.175 24.5733 164.335 25.8C164.495 26.9733 164.628 27.9333 164.735 28.68C164.735 28.7333 164.788 29.1067 164.895 29.8C165.002 30.4933 165.108 31.3733 165.215 32.44C165.375 33.4533 165.508 34.5733 165.615 35.8C165.775 36.9733 165.935 38.1467 166.095 39.32C166.255 40.44 166.388 41.4533 166.495 42.36C166.655 43.2133 166.762 43.8267 166.815 44.2C166.815 44.36 166.842 44.6 166.895 44.92C167.002 45.1867 167.082 45.5067 167.135 45.88C167.242 46.2533 167.348 46.6 167.455 46.92C167.562 47.24 167.695 47.48 167.855 47.64C168.175 47 168.575 46.0133 169.055 44.68C169.588 43.3467 170.122 41.9867 170.655 40.6C171.242 39.2133 171.775 38.0133 172.255 37C172.788 35.9333 173.242 35.4 173.615 35.4C174.042 35.4 174.388 35.48 174.655 35.64C174.922 35.8 175.268 35.9333 175.695 36.04C176.228 36.2533 176.495 36.5467 176.495 36.92C176.495 37.24 176.548 37.64 176.655 38.12C176.762 38.76 176.922 39.6133 177.135 40.68C177.402 41.6933 177.695 42.7067 178.015 43.72C178.335 44.68 178.708 45.5067 179.135 46.2C179.562 46.8933 179.988 47.24 180.415 47.24C180.628 47.24 180.922 46.9733 181.295 46.44C181.668 45.8533 182.175 45.5333 182.815 45.48C182.922 45.48 183.108 45.56 183.375 45.72C183.642 45.8267 183.908 45.9867 184.175 46.2Z" stroke="white" stroke-width="6" mask="url(#path-1-outside-1)"/>
<path d="M205.998 23.56C205.305 27.24 204.665 30.7867 204.078 34.2C203.811 35.64 203.545 37.16 203.278 38.76C203.011 40.3067 202.745 41.8533 202.478 43.4C202.265 44.8933 202.051 46.3333 201.838 47.72C201.678 49.0533 201.545 50.28 201.438 51.4C201.225 53.1067 201.065 55.0533 200.958 57.24C200.851 59.4267 200.745 61.5067 200.638 63.48C200.531 65.7733 200.478 68.0933 200.478 70.44C200.478 70.92 200.425 71.4533 200.318 72.04C200.211 72.6267 200.158 73.2133 200.158 73.8C200.158 74.3333 200.025 74.7867 199.758 75.16C199.545 75.5333 199.198 75.72 198.718 75.72C198.291 75.72 197.945 75.3733 197.678 74.68C197.465 74.04 197.278 73.2667 197.118 72.36C196.958 71.5067 196.851 70.6267 196.798 69.72C196.745 68.8667 196.718 68.2533 196.718 67.88C196.718 67.4533 196.718 66.92 196.718 66.28C196.718 65.6933 196.745 64.7867 196.798 63.56C196.905 62.3867 197.038 60.84 197.198 58.92C197.358 56.9467 197.598 54.3867 197.918 51.24C197.918 51.1867 197.545 50.92 196.798 50.44C196.105 49.96 195.225 49.3733 194.158 48.68C193.145 47.9333 192.078 47.1333 190.958 46.28C189.891 45.4267 188.985 44.6 188.238 43.8C188.131 43.6933 187.971 43.4533 187.758 43.08C187.545 42.7067 187.438 42.2533 187.438 41.72C187.438 41.4533 187.571 41.1867 187.838 40.92C188.105 40.6 188.398 40.44 188.718 40.44C188.931 40.44 189.145 40.5467 189.358 40.76C190.585 41.8267 191.998 43.0267 193.598 44.36C195.198 45.64 196.771 46.8133 198.318 47.88C198.425 46.92 198.638 45.4533 198.958 43.48C199.331 41.5067 199.705 39.4 200.078 37.16C200.451 34.8667 200.798 32.6533 201.118 30.52C201.491 28.3867 201.758 26.68 201.918 25.4C201.918 25.1867 201.971 24.84 202.078 24.36C202.185 23.88 202.345 23.4 202.558 22.92C202.771 22.44 203.011 22.04 203.278 21.72C203.545 21.3467 203.838 21.16 204.158 21.16C204.318 21.16 204.665 21.32 205.198 21.64C205.731 21.9067 205.998 22.5467 205.998 23.56Z" stroke="white" stroke-width="6" mask="url(#path-1-outside-1)"/>
</svg>
