<svg version="1.0" xmlns="http://www.w3.org/2000/svg"
 width="512.000000pt" height="512.000000pt" viewBox="0 0 512.000000 512.000000"
 preserveAspectRatio="xMidYMid meet">
<metadata>
Created by potrace 1.16, written by Peter Selinger 2001-2019
</metadata>
<g transform="translate(0.000000,512.000000) scale(0.100000,-0.100000)"
fill="#31C5F0" stroke="none">
<path d="M1380 5100 c-41 -11 -117 -41 -168 -66 -195 -98 -343 -281 -405 -503
-21 -74 -21 -95 -25 -823 l-3 -747 -322 -3 c-362 -3 -357 -2 -421 -81 l-31
-39 -3 -659 c-2 -632 -2 -660 17 -696 22 -43 42 -63 91 -89 32 -17 65 -19 352
-22 l316 -3 4 -352 c4 -318 7 -359 26 -428 60 -220 208 -405 404 -503 186 -93
72 -87 1574 -84 l1319 3 86 31 c251 90 432 278 511 534 l23 75 3 1469 c3 1637
7 1528 -67 1654 -22 37 -69 103 -104 147 -90 110 -996 1009 -1082 1073 -38 29
-104 69 -144 90 l-75 37 -900 2 c-862 2 -904 1 -976 -17z m1695 -422 c63 -68
66 -94 74 -580 l6 -436 31 -39 c65 -80 46 -77 529 -84 362 -4 438 -8 480 -22
66 -21 115 -72 126 -129 12 -61 11 -2579 -1 -2651 -26 -158 -130 -277 -281
-321 -50 -15 -179 -16 -1305 -14 l-1249 3 -58 27 c-79 37 -129 78 -170 141
-65 99 -67 115 -67 474 l0 323 1175 0 c824 0 1189 3 1226 11 72 16 132 76 148
148 15 73 15 1200 0 1273 -14 65 -73 130 -134 147 -28 8 -389 11 -1227 11
l-1188 0 0 718 c0 798 -3 763 67 869 52 78 140 141 230 162 21 5 377 8 796 8
l759 -2 33 -37z m-1110 -1939 c106 -32 104 -28 71 -163 -16 -67 -33 -116 -40
-116 -6 0 -38 9 -70 20 -86 31 -173 36 -216 13 -20 -10 -39 -30 -45 -46 -17
-51 7 -76 149 -147 146 -73 208 -123 251 -201 28 -50 30 -61 30 -159 0 -93 -3
-112 -27 -162 -75 -161 -274 -244 -493 -204 -94 16 -194 52 -202 71 -4 13 16
127 38 208 5 20 16 37 23 37 8 0 38 -11 68 -25 29 -13 87 -30 129 -36 127 -19
189 11 189 92 0 49 -28 72 -173 143 -127 61 -190 115 -235 200 -23 44 -27 63
-27 141 0 77 4 98 26 146 85 180 320 260 554 188z m-1045 -9 c175 -59 260
-205 239 -412 -21 -204 -181 -334 -421 -340 l-68 -2 -2 -196 -3 -195 -125 -3
c-109 -2 -126 0 -137 15 -10 13 -13 140 -13 564 0 471 2 550 15 562 9 10 45
18 92 22 43 3 85 8 93 10 8 2 71 3 140 1 96 -3 140 -9 190 -26z m2004 0 c148
-38 252 -122 316 -255 46 -95 60 -165 60 -294 -1 -251 -105 -449 -284 -536
-124 -61 -177 -70 -396 -70 -107 0 -207 3 -222 8 l-28 7 0 565 0 565 23 10
c75 33 402 33 531 0z"/>
<path d="M670 2365 l0 -145 48 0 c100 0 172 65 172 153 0 92 -53 137 -159 137
l-61 0 0 -145z"/>
<path d="M2640 2164 l0 -347 83 5 c138 7 221 67 264 191 27 79 25 275 -3 338
-51 110 -133 159 -269 159 l-75 0 0 -346z"/>
</g>
</svg>
